<?xml version="1.0" encoding="UTF-8"?>
<svg id="Camada_1" xmlns="http://www.w3.org/2000/svg" version="1.1" viewBox="0 0 152.5 70.8">
  <!-- Generator: Adobe Illustrator 30.0.0, SVG Export Plug-In . SVG Version: 2.1.1 Build 123)  -->
  <defs>
    <style>
      .st0, .st1 {
        fill: #004b93;
      }

      .st0, .st2 {
        fill-rule: evenodd;
      }

      .st2 {
        fill: #00733b;
      }
    </style>
  </defs>
  <polygon class="st0" points="0 46 38.1 46 76.2 46 114.3 46 152.5 46 152.5 48.3 114.3 48.3 76.2 48.3 38.1 48.3 0 48.3 0 46 0 46"/>
  <g>
    <path class="st2" d="M91.7,22.9c.2-1,1-1.4,1.8-1.8.8-.4,1.8-.4,2.9-.4-.4,1.8-1,3.9-3.2,3.9s-1.5-.8-1.4-1.8h0ZM70,16.2c2.1,0,1.8,2.5,1.4,4.2-.4,1.8-1.2,4.3-3.5,4.3s-1.8-2.5-1.5-4.1c.5-1.8,1.2-4.4,3.6-4.4h0ZM84.2,13.6h-5.1c-.2,1.4-.4,2.3-.6,3.5l-2.3,10.1h5.1l1.2-5.4c.5-2.6,1.8-4.3,4.4-4.3h1.2l.8-4.3c-2.3-.1-4.1.7-5.2,3l.5-2.6h0ZM105,40.9h-25.3c-6.6,0-13.1-5.4-14.4-11.8l-.5-1.9.7-1.9c.1,1.3,1.7,2.4,3.2,2.4,4.5,0,7.2-3.3,8-7.5.8-3.8-.4-6.9-4.5-6.9s-3.3.6-4.6,1.8l1.7-7.4h-5.1l-1.7,7.9-3.3-15.5h25.3c6.6,0,13.1,5.3,14.5,11.8l.4,1.8c-.8-.2-1.7-.4-2.5-.4-1.5,0-3.3.1-4.9.8-1.5.6-2.8,1.7-3.1,3.6h4.8c.1-.8.8-2,2.2-2,2-.1,1.4,1.7,1.1,2.9h-1.5c-4.4,0-7.7,1.3-8.6,4.6-.6,2.7.7,4.5,3.9,4.5s3.9-1.3,4.9-2.3c-.2,1-.4,1.4-.4,1.8h4.9c.2-1.5.2-2.1.4-2.7l.6-2.9,4.1,19.3h0Z"/>
    <path class="st0" d="M126.3,13.2c-1.5,0-3.3.1-4.9.8-1.5.6-2.7,1.7-3.2,3.6h4.9c.1-.8.8-2,2-2,2.1-.1,1.4,1.7,1.2,2.9h-1.5c-4.5,0-7.8,1.3-8.6,4.6-.6,2.7.7,4.5,3.9,4.5s3.9-1.3,4.8-2.3h.1c-.2,1-.4,1.4-.4,1.8h4.9c.2-1.5.2-2.1.4-2.7l1.5-7c.7-3.1-2.4-4.2-5.1-4.2ZM122.6,24.7c-.9,0-1.6-.8-1.4-1.8.2-1,1-1.4,1.8-1.8.8-.4,1.8-.4,2.9-.4-.4,1.8-1,3.9-3.2,3.9ZM58.4,13.2c-2,0-4.1.9-5.4,2.6-.1-1.7-1.9-2.6-3.5-2.6s-4.1.7-5.4,2.6h-.1l.5-2.3h-5.1c-.1,1.4-.4,2.3-.6,3.5l-2.1,10.1h5.1l1.7-7.7c.1-.2.4-3,2.9-3s1.7,1.4,1.4,2.7l-1.8,8h5.1l1.8-7.7c0-.2.2-3,2.9-3s1.6,1.4,1.3,2.7l-1.7,8h5.1l1.9-9.1c.7-3-1.1-4.9-4.1-4.9ZM28,19.3h8.7l.8-3.8h-8.7l.8-4.1h9.5l.8-3.8h-14.9l-4.2,19.6h14.8l.8-3.7h-9.4l.8-4.2ZM112,13.2c-2,0-3.6.7-5,2.3l.4-1.9h-5.1l-4.1,18.8h5.1l1.5-6.8c.7,1.2,1.9,2,3.5,2,4.3,0,7-3.5,8-7.4.7-3.6-.4-7-4.3-7ZM110.9,20.4c-.3,1.8-1.2,4.3-3.5,4.3s-1.9-2.5-1.5-4.3c.4-1.7,1.2-4.2,3.5-4.2s1.9,2.5,1.5,4.2Z"/>
  </g>
  <g>
    <path class="st1" d="M78.4,68.9c.3,0,.6,0,.8-.2.2-.1.4-.3.5-.4.1-.2.2-.4.3-.6,0-.2,0-.3.1-.5l2.1-9.7h2.8l-2.2,10.4c-.1.5-.2.8-.4,1.2-.2.3-.4.7-.7.9-.3.3-.6.4-1.1.6-.4.1-.9.2-1.5.2s-.2,0-.4,0c-.2,0-.4,0-.6,0l.4-1.9ZM82.8,53.5h3l-.5,2.4h-3l.5-2.4Z"/>
    <path class="st1" d="M94.2,59.1c0-.2-.1-.4-.2-.6-.2-.3-.4-.5-.7-.7-.3-.2-.6-.3-.9-.4-.3,0-.6-.1-.9-.2-.3,0-.5,0-.7,0-.4,0-.9,0-1.5.2-.5,0-1.1.3-1.6.6-.3.2-.5.4-.7.6-.2.2-.3.4-.5.6-.1.2-.2.4-.3.6,0,.2,0,.3-.1.5h2.7c0-.1,0-.2.1-.4,0-.1.1-.3.3-.5.2-.2.3-.3.6-.4.2,0,.4-.1.6-.1s.1,0,.3,0c.1,0,.2,0,.3.1.1,0,.2.1.3.2,0,.1.1.2.2.4,0,.2,0,.3,0,.5,0,.2,0,.4-.1.7-.2,0-.5,0-.8,0s-.6,0-1,0c-.4,0-.7,0-1.1.2-.4,0-.7.2-1,.3-.5.2-.9.4-1.2.7-.3.3-.6.5-.8.8-.2.3-.4.5-.4.8,0,.3-.2.5-.2.7,0,.4,0,.8,0,1.1,0,.4.2.7.4,1,.1.2.4.4.7.5.3.2.8.2,1.5.2s.3,0,.5,0c.2,0,.5,0,.7-.2.3,0,.6-.2.9-.5.3-.2.7-.5,1-.9,0,.1,0,.3-.1.5,0,.2,0,.5,0,.8h2.5c0-.4,0-.8,0-1.2,0-.4.1-.8.2-1.2l.8-3.8c0-.1,0-.3,0-.4,0-.2,0-.4,0-.6,0-.2,0-.4,0-.7ZM90.8,63.9c-.1.4-.4.7-.7,1-.2.1-.4.3-.6.4-.2,0-.5.2-.7.2s-.4,0-.6-.1c-.2,0-.3-.2-.4-.3,0-.1-.1-.3-.2-.4,0-.2,0-.3,0-.5.1-.6.5-1,1.1-1.3.6-.3,1.4-.4,2.3-.3-.1.5-.2,1-.4,1.3Z"/>
    <path class="st1" d="M69.6,62.4c.1-.6.3-1.2.6-1.8.3-.6.7-1.1,1.2-1.6.5-.5,1.1-.9,1.8-1.2.7-.3,1.5-.5,2.4-.5s1.6.1,2.2.4c.6.3,1,.6,1.3,1.1.3.5.5,1,.5,1.6,0,.6,0,1.2-.1,1.9-.2.7-.4,1.3-.7,1.9-.3.6-.7,1.2-1.3,1.6-.5.5-1.1.8-1.8,1.1-.7.3-1.5.4-2.3.4s-1.3-.1-1.8-.3c-.5-.2-1-.5-1.3-.9-.4-.4-.6-.9-.7-1.6-.1-.6,0-1.4,0-2.2ZM72.5,62.4c-.2,1.1-.2,1.8,0,2.3.3.5.7.7,1.4.7s.6,0,.9-.2c.3,0,.5-.3.8-.5.2-.2.4-.6.6-1,.2-.4.3-.9.5-1.6,0-.3.1-.7.1-1,0-.3,0-.7,0-1,0-.3-.2-.6-.5-.7-.2-.2-.6-.3-1-.3s-.9.1-1.3.4c-.3.3-.6.6-.8.9-.2.3-.4.7-.5,1.1,0,.4-.2.7-.2.9Z"/>
    <path class="st0" d="M58.2,62.6h2.6c0,.7.2,1.2.4,1.5.4.5,1.1.7,2.2.7s1.5-.2,1.9-.5c.4-.3.6-.7.6-1.2s-.2-.7-.5-1c-.2-.2-.9-.5-1.9-1-1-.5-1.8-.8-2.2-1.1-.5-.3-.8-.7-1.1-1.2-.3-.5-.4-1-.4-1.7,0-1.1.4-2,1.2-2.8.8-.7,2-1.1,3.5-1.1s2.7.4,3.6,1.1c.8.7,1.3,1.7,1.4,2.9h-2.6c0-.5-.3-1-.7-1.3-.4-.3-1-.5-1.7-.5s-1.3.1-1.6.4c-.3.3-.5.6-.5,1s.1.7.4.9c.3.3.9.6,1.9,1,1.5.7,2.5,1.2,2.9,1.6.6.6.9,1.4.9,2.3s-.5,2.2-1.4,3c-.9.8-2.2,1.2-3.8,1.2s-2.1-.2-2.9-.6c-.8-.4-1.4-.9-1.8-1.6-.3-.7-.5-1.5-.5-2.3h0Z"/>
  </g>
</svg>