<?xml version="1.0" encoding="UTF-8"?>
<svg id="Camada_1" xmlns="http://www.w3.org/2000/svg" version="1.1" viewBox="0 0 276.9 128.6">
  <!-- Generator: Adobe Illustrator 30.0.0, SVG Export Plug-In . SVG Version: 2.1.1 Build 123)  -->
  <defs>
    <style>
      .st0, .st1 {
        fill: #004b93;
      }

      .st0, .st2 {
        fill-rule: evenodd;
      }

      .st2 {
        fill: #00733b;
      }
    </style>
  </defs>
  <polygon class="st0" points="0 83.6 69.2 83.6 138.4 83.6 207.7 83.6 276.9 83.6 276.9 87.7 207.7 87.7 138.4 87.7 69.2 87.7 0 87.7 0 83.6 0 83.6"/>
  <g>
    <path class="st1" d="M45.3,97l3.3,24.8h-5.3l-.7-5.3h-9.8l-3,5.3h-5.1l14.2-24.8h6.3ZM42.1,112.4l-1.2-10.5-5.9,10.5h7.1Z"/>
    <path class="st1" d="M54.3,108.7c0-.2.1-.5.2-.9,0-.4.1-.8.2-1.2,0-.4.1-.9.2-1.3,0-.4,0-.7.1-1h4.8l-.6,3.3c.2-.4.5-.8.9-1.2.3-.4.8-.8,1.3-1.1.5-.3,1.1-.6,1.9-.8.7-.2,1.6-.3,2.6-.2l-1,4.5c-1.3-.1-2.3,0-3.1.2-.8.2-1.4.6-1.8,1-.5.4-.8.9-1,1.5-.2.6-.4,1.1-.5,1.7l-1.8,8.5h-5.1l2.8-13.1Z"/>
    <path class="st1" d="M67.7,108.7c0-.2.1-.5.2-.9,0-.4.1-.8.2-1.2,0-.4.1-.9.2-1.3s.1-.7.1-1h4.8l-.6,3.3c.2-.4.5-.8.9-1.2.3-.4.8-.8,1.3-1.1.5-.3,1.1-.6,1.8-.8.7-.2,1.6-.3,2.6-.2l-.9,4.5c-1.3-.1-2.3,0-3.1.2-.8.2-1.4.6-1.9,1-.5.4-.8.9-1,1.5-.2.6-.4,1.1-.5,1.7l-1.8,8.5h-5.1l2.8-13.1Z"/>
    <path class="st1" d="M79.2,113.3c.2-1,.6-2.1,1.1-3.2.5-1.1,1.2-2.1,2.1-3,.9-.9,1.9-1.6,3.2-2.2,1.3-.6,2.7-.9,4.5-.9s2.9.3,3.9.7c1,.5,1.8,1.2,2.4,2,.5.8.9,1.8,1,2.9.1,1.1,0,2.3-.2,3.5-.3,1.2-.7,2.4-1.3,3.5-.6,1.1-1.3,2.1-2.3,3-.9.9-2,1.5-3.2,2-1.2.5-2.7.8-4.2.8s-2.3-.2-3.3-.6c-1-.4-1.8-.9-2.5-1.7-.6-.8-1.1-1.7-1.3-2.9-.2-1.1-.1-2.5.2-4ZM84.4,113.3c-.4,2-.4,3.3,0,4.2.5.9,1.3,1.3,2.6,1.3s1.1-.1,1.6-.3c.5-.2,1-.5,1.4-.9.4-.4.8-1.1,1.1-1.8.3-.8.6-1.7.9-2.8.1-.6.2-1.2.3-1.8,0-.6,0-1.2-.1-1.8-.1-.5-.4-1-.8-1.3-.4-.4-1.1-.5-1.9-.5s-1.7.2-2.3.7c-.6.5-1.1,1-1.5,1.7-.4.6-.7,1.3-.8,1.9-.2.7-.3,1.2-.4,1.6Z"/>
    <path class="st1" d="M98.9,117.4l10.8-9.5h-8.5l.7-3.4h14.2l-.9,4.4-10.8,9.4h9.1l-.8,3.5h-14.8l1-4.4Z"/>
    <path class="st1" d="M131.4,114.4c0,.3-.1.7-.2,1.2,0,.5,0,1,0,1.5.1.5.4.9.8,1.3.4.4,1,.6,1.9.6s1.3-.1,1.9-.5c.6-.3,1.2-.9,1.6-1.9h4.6c0,.4-.3,1-.7,1.7-.3.7-.9,1.4-1.8,2.1-.8.7-1.8,1.2-2.9,1.5-1.1.4-2.3.5-3.6.5s-.8,0-1.3,0c-.5,0-1-.2-1.5-.3-.5-.1-1-.4-1.5-.7-.5-.3-.9-.7-1.3-1.1-.6-.8-.9-1.8-1.1-2.9-.1-1.2,0-2.4.3-3.8.2-.7.4-1.4.6-2.2.3-.7.6-1.5,1-2.2.4-.7.9-1.4,1.5-2.1.6-.7,1.3-1.2,2.2-1.7.8-.5,1.6-.8,2.4-1.1.9-.3,1.8-.4,2.7-.4s1.2,0,1.9.2c.6.1,1.2.4,1.8.7.5.3,1,.7,1.5,1.3.4.5.8,1.2,1,2,.1.6.3,1.2.3,1.8,0,.6,0,1.2,0,1.7,0,.6-.1,1.1-.2,1.6-.1.5-.2.9-.3,1.2h-11.6ZM138.5,111.3c0-.2,0-.5.1-.9,0-.4,0-.9,0-1.3-.1-.4-.3-.8-.7-1.2-.3-.3-.9-.5-1.6-.5s-1,.1-1.5.3c-.4.2-.8.5-1.2.9-.3.4-.6.8-.9,1.2-.2.4-.4.9-.5,1.5h6.3Z"/>
    <path class="st1" d="M159.7,97.1h15.9l-.8,4h-10.7l-1.3,6.1h9.9l-.9,4.1h-9.9l-2.2,10.5h-5.3l5.2-24.7Z"/>
    <path class="st1" d="M179,114.4c0,.3-.1.7-.2,1.2,0,.5,0,1,0,1.5.1.5.4.9.7,1.3.4.4,1,.6,1.9.6s1.3-.1,1.9-.5c.6-.3,1.2-.9,1.6-1.9h4.6c-.1.4-.3,1-.7,1.7-.3.7-.9,1.4-1.8,2.1-.8.7-1.8,1.2-2.9,1.5-1.1.4-2.3.5-3.6.5s-.8,0-1.3,0c-.5,0-1-.2-1.5-.3-.5-.1-1-.4-1.5-.7-.5-.3-.9-.7-1.3-1.1-.6-.8-.9-1.8-1.1-2.9-.1-1.2,0-2.4.3-3.8.2-.7.4-1.4.6-2.2.2-.7.6-1.5,1-2.2.4-.7.9-1.4,1.5-2.1.6-.7,1.3-1.2,2.2-1.7.8-.5,1.6-.8,2.4-1.1.9-.3,1.8-.4,2.7-.4s1.2,0,1.9.2c.6.1,1.2.4,1.8.7.5.3,1,.7,1.5,1.3.4.5.8,1.2,1,2,.2.6.3,1.2.3,1.8,0,.6,0,1.2,0,1.7,0,.6-.1,1.1-.2,1.6-.1.5-.2.9-.3,1.2h-11.6ZM186.1,111.3c0-.2.1-.5.2-.9,0-.4,0-.9,0-1.3-.1-.4-.3-.8-.7-1.2-.3-.3-.9-.5-1.6-.5s-1,.1-1.5.3c-.4.2-.8.5-1.2.9-.3.4-.6.8-.9,1.2-.2.4-.4.9-.6,1.5h6.3Z"/>
    <path class="st1" d="M196.1,104.5h5.1l-3.7,17.3h-5.1l3.7-17.3ZM197.5,97.1h5.4l-.9,4.4h-5.4l.9-4.4Z"/>
    <path class="st1" d="M198.9,125.1c.6,0,1,0,1.4-.3.4-.2.6-.5.9-.8.2-.3.4-.7.5-1,0-.4.2-.6.2-.9l3.8-17.7h5.1l-4,18.9c-.2.8-.4,1.5-.8,2.2-.3.6-.7,1.2-1.3,1.6-.5.5-1.2.8-2,1.1-.8.2-1.7.4-2.8.4s-.4,0-.7,0c-.3,0-.6,0-1-.1l.7-3.4ZM207,97.1h5.4l-.9,4.4h-5.4l.9-4.4Z"/>
    <path class="st1" d="M221.8,121.8c0-.5,0-1,.1-1.4,0-.4.1-.7.2-1-.6.7-1.3,1.2-1.9,1.6-.6.4-1.1.7-1.6.8-.5.1-.9.3-1.3.3-.4,0-.7,0-.9,0-1.3,0-2.2-.1-2.7-.4-.6-.3-1-.6-1.3-.9-.4-.5-.7-1.1-.8-1.8-.1-.7,0-1.3,0-2,0-.3.2-.7.4-1.2.2-.5.5-.9.8-1.4.4-.5.8-1,1.4-1.5.6-.5,1.3-.9,2.2-1.2.6-.2,1.2-.4,1.8-.6.7-.1,1.3-.2,1.9-.3.6,0,1.2,0,1.8,0s1.1,0,1.5,0c.1-.6.2-1,.3-1.3,0-.3,0-.6,0-.9,0-.3-.1-.6-.3-.8-.2-.2-.3-.3-.5-.4-.2-.1-.4-.2-.6-.2-.2,0-.4,0-.5,0-.4,0-.7,0-1.1.2-.4.2-.7.4-1,.7-.3.3-.4.6-.5.8,0,.3-.2.5-.2.7h-5c0-.2.1-.5.2-.9.1-.3.3-.7.5-1,.2-.4.5-.8.8-1.1.3-.4.8-.7,1.3-1.1.9-.6,1.9-.9,2.8-1.1,1-.2,1.9-.3,2.7-.3s.8,0,1.3,0c.5,0,1,.1,1.6.3.5.2,1.1.4,1.6.7.5.3.9.7,1.2,1.2.2.3.3.7.4,1.2,0,.4.1.8.1,1.2,0,.4,0,.7-.1,1.1,0,.3-.1.6-.2.8l-1.4,7c-.2.7-.3,1.5-.4,2.2,0,.7-.1,1.5-.1,2.2h-4.6ZM222.9,113.7c-1.6-.1-3,0-4.1.5-1.1.5-1.8,1.2-2.1,2.3,0,.3,0,.6,0,.9,0,.3.1.6.3.8.1.2.4.4.7.6.3.1.6.2,1,.2s.9-.1,1.3-.3c.4-.2.8-.4,1.1-.7.6-.5,1-1.2,1.2-1.8.2-.7.5-1.5.7-2.4ZM216.9,101.5c.4-1.3,1.1-2.3,2-3.1.9-.8,1.9-1.2,2.9-1.2s.7,0,1.1.2c.3.1.5.2.6.2l1.8.8c.1,0,.3,0,.4.1.2,0,.4,0,.7,0,.5,0,.9-.1,1.2-.5.3-.3.5-.7.7-1.1h1.7c-.2.6-.5,1.2-.8,1.7-.3.5-.7,1-1.3,1.5-.3.3-.7.5-1.1.7-.4.2-.9.3-1.5.3s-.7,0-1-.1c-.3,0-.5-.2-.7-.2l-1.4-.5c-.2,0-.4-.1-.7-.2-.3,0-.5-.1-.8-.1s-.6,0-1,.3c-.4.2-.8.6-1.1,1.3h-1.8Z"/>
    <path class="st1" d="M231.5,113.3c.2-1,.6-2.1,1.1-3.2.5-1.1,1.2-2.1,2.1-3,.9-.9,1.9-1.6,3.2-2.2,1.3-.6,2.7-.9,4.4-.9s2.9.3,3.9.7c1,.5,1.8,1.2,2.4,2,.5.8.9,1.8,1,2.9.1,1.1,0,2.3-.2,3.5-.3,1.2-.7,2.4-1.3,3.5-.6,1.1-1.4,2.1-2.3,3-.9.9-2,1.5-3.3,2-1.2.5-2.6.8-4.2.8s-2.3-.2-3.3-.6c-1-.4-1.8-.9-2.4-1.7-.6-.8-1.1-1.7-1.3-2.9-.2-1.1-.1-2.5.2-4ZM236.7,113.3c-.4,2-.4,3.3,0,4.2.5.9,1.3,1.3,2.6,1.3s1.1-.1,1.6-.3c.5-.2,1-.5,1.4-.9.4-.4.8-1.1,1.2-1.8.3-.8.6-1.7.9-2.8.1-.6.2-1.2.2-1.8,0-.6,0-1.2-.1-1.8-.1-.5-.4-1-.9-1.3-.4-.4-1.1-.5-1.9-.5s-1.7.2-2.3.7c-.6.5-1.1,1-1.5,1.7-.4.6-.7,1.3-.8,1.9-.2.7-.3,1.2-.4,1.6Z"/>
  </g>
  <path class="st2" d="M166.5,41.6c.4-1.7,1.7-2.6,3.3-3.3,1.5-.6,3.2-.6,5.2-.6-.7,3.2-1.7,7.1-5.8,7.1s-2.8-1.5-2.6-3.2h0ZM127.1,29.5c3.9,0,3.3,4.5,2.6,7.6-.7,3.2-2.2,7.8-6.3,7.8s-3.3-4.5-2.8-7.4c.9-3.2,2.2-8,6.5-8h0ZM152.8,24.7h-9.3c-.4,2.6-.7,4.1-1.1,6.3l-4.1,18.4h9.3l2.2-9.7c.9-4.8,3.2-7.8,8-7.8h2.2l1.5-7.8c-4.1-.2-7.4,1.3-9.5,5.4l.9-4.8h0ZM190.7,74.3h-45.9c-11.9,0-23.8-9.7-26.2-21.4l-.9-3.5,1.3-3.5c.2,2.4,3,4.3,5.8,4.3,8.2,0,13-6.1,14.5-13.6,1.5-6.9-.7-12.6-8.2-12.6s-6.1,1.1-8.4,3.2l3-13.4h-9.3l-3,14.3L107.4,0h45.9c11.9,0,23.8,9.5,26.4,21.4l.7,3.2c-1.5-.4-3-.6-4.6-.6-2.8,0-6.1.2-8.9,1.5-2.8,1.1-5,3-5.6,6.5h8.6c.2-1.5,1.5-3.7,3.9-3.7,3.7-.2,2.6,3,1.9,5.2h-2.8c-8,0-14.1,2.4-15.6,8.4-1.1,5,1.3,8.2,7.1,8.2s7.2-2.4,8.9-4.1c-.4,1.7-.7,2.6-.7,3.2h8.9c.4-2.8.4-3.9.7-5l1.1-5.2,7.4,35.1h0Z"/>
  <path class="st0" d="M229.3,24.1c-2.8,0-6.1.2-8.9,1.5-2.8,1.1-5,3-5.8,6.5h8.9c.2-1.5,1.5-3.7,3.7-3.7,3.9-.2,2.6,3,2.2,5.2h-2.8c-8.2,0-14.1,2.4-15.6,8.4-1.1,5,1.3,8.2,7.1,8.2s7.2-2.4,8.7-4.1h.2c-.4,1.7-.7,2.6-.7,3.2h8.9c.4-2.8.4-3.9.6-5l2.8-12.8c1.3-5.6-4.3-7.6-9.3-7.6ZM222.6,44.8c-1.7,0-2.8-1.5-2.6-3.2.4-1.7,1.7-2.6,3.2-3.3,1.5-.6,3.3-.6,5.2-.6-.7,3.2-1.7,7.1-5.8,7.1ZM106.1,24.1c-3.7,0-7.4,1.7-9.7,4.8-.2-3-3.5-4.8-6.3-4.8s-7.4,1.3-9.7,4.8h-.2l.9-4.1h-9.3c-.2,2.6-.7,4.1-1.1,6.3l-3.9,18.4h9.3l3-14.1c.2-.4.7-5.4,5.2-5.4s3,2.6,2.6,5l-3.3,14.5h9.3l3.3-14.1c0-.4.4-5.4,5.2-5.4s2.8,2.6,2.4,5l-3,14.5h9.3l3.5-16.5c1.3-5.4-1.9-8.9-7.4-8.9ZM50.9,35.1h15.8l1.5-6.9h-15.8l1.5-7.4h17.3l1.5-6.9h-27.1l-7.6,35.5h26.9l1.5-6.7h-17.1l1.5-7.6ZM203.3,24.1c-3.7,0-6.5,1.3-9.1,4.1l.7-3.5h-9.3l-7.4,34.2h9.3l2.8-12.4c1.3,2.2,3.5,3.7,6.3,3.7,7.8,0,12.8-6.3,14.5-13.4,1.3-6.5-.6-12.8-7.8-12.8ZM201.3,37c-.6,3.2-2.2,7.8-6.3,7.8s-3.4-4.5-2.8-7.8c.7-3,2.2-7.6,6.3-7.6s3.5,4.5,2.8,7.6Z"/>
</svg>